#!OML:ASF H:\Terrain\Walking\May29\JustinRory\Justin.ASF
:FULLY-SPECIFIED
:DEGREES
1441
root 8.20924 17.5919 -16.2178 -2.61018 -5.61031 -0.0355356
lowerback 5.79504 -0.331511 -3.06024
upperback -0.0999813 -0.523603 3.82026
thorax -3.29564 -0.180045 5.74946
lowerneck -12.6276 -3.05125 -12.6118
upperneck 12.2794 -3.19772 9.6806
head 6.15199 -1.41102 4.89486
rclavicle -3.8732e-015 7.95139e-016
rhumerus -12.1666 33.5827 -98.4599
rradius 101.539
rwrist -21.0679
rhand -30.3986 36.1409
rfingers 7.12502
rthumb -3.70236 6.19332
lclavicle -3.8732e-015 7.95139e-016
lhumerus -2.13017 -32.9237 97.2474
lradius 93.8136
lwrist 17.3547
lhand -22.3403 40.2337
lfingers 7.12502
lthumb 4.08017 70.1744
rfemur -1.78112 -0.929258 15.7225
rtibia 17.012
rfoot -9.81413 -9.88335
rtoes -2.29778
lfemur -1.67358 1.86194 -18.5249
ltibia 20.4511
lfoot -13.6818 5.18541
ltoes -9.59169
1442
root 8.21302 17.5894 -16.2129 -2.63486 -5.72403 -0.148889
lowerback 5.74953 -0.323805 -2.95139
upperback -0.0247605 -0.505859 3.8439
thorax -3.19469 -0.176953 5.70851
lowerneck -14.1524 -3.1811 -15.5827
upperneck 13.8718 -3.15176 12.7376
head 7.01128 -1.27515 6.47958
rclavicle 1.48762e-014 -2.54444e-014
rhumerus -11.9299 35.8913 -98.9722
rradius 100.405
rwrist -22.0424
rhand -28.3656 37.3955
rfingers 7.12502
rthumb -1.73903 7.42288
lclavicle 1.48762e-014 -2.54444e-014
lhumerus -1.68884 -35.5348 97.1547
lradius 93.2542
lwrist 17.8851
lhand -21.6085 40.2199
lfingers 7.12502
lthumb 4.78684 70.1459
rfemur -1.83447 -0.815987 15.8614
rtibia 17.1713
rfoot -9.83169 -9.92849
rtoes -2.27052
lfemur -1.66063 2.05547 -18.3838
ltibia 20.5525
lfoot -13.5921 5.06445
ltoes -9.20695
1443
root 8.21849 17.5877 -16.2105 -2.62706 -5.89344 -0.238026
lowerback 5.66286 -0.243945 -2.82105
upperback 0.0744509 -0.391924 3.81865
thorax -3.05758 -0.127622 5.59478
lowerneck -14.3364 -3.19497 -15.7869
upperneck 13.8917 -3.16607 13.1242
head 7.06144 -1.25584 6.6504
rclavicle -1.5381e-014 1.66979e-014
rhumerus -11.5847 38.1478 -99.3941
rradius 99.7028
rwrist -23.8581
rhand -26.1925 34.5733
rfingers 7.12502
rthumb 0.359847 4.59391
lclavicle -1.5381e-014 1.66979e-014
lhumerus -1.12233 -38.0639 96.9201
lradius 92.5508
lwrist 17.954
lhand -20.8369 41.4526
lfingers 7.12502
lthumb 5.53186 71.3604
rfemur -1.87752 -0.665869 15.9618
rtibia 17.2385
rfoot -9.91989 -9.90569
rtoes -2.48003
lfemur -1.69325 2.06839 -18.2911
ltibia 20.6749
lfoot -13.6842 5.20302
ltoes -8.5876
1444
root 8.21999 17.5845 -16.203 -2.70382 -6.16845 -0.219993
lowerback 5.53078 -0.111796 -2.85524
upperback 0.215184 -0.21895 3.80211
thorax -2.85772 -0.0484118 5.5795
lowerneck -14.8139 -3.35779 -15.9453
upperneck 14.3757 -3.33867 13.2456
head 7.3334 -1.32835 6.71879
rclavicle 1.14456e-014 1.90833e-014
rhumerus -10.8549 38.9682 -99.3935
rradius 98.8027
rwrist -21.7872
rhand -30.6479 40.5342
rfingers 7.12502
rthumb -3.94313 10.5909
lclavicle 1.14456e-014 1.90833e-014
lhumerus -0.497017 -39.3699 96.9855
lradius 91.6285
lwrist 18.3196
lhand -26.0809 46.0968
lfingers 7.12502
lthumb 0.467651 76.076
rfemur -1.82965 -0.425823 15.9533
rtibia 17.2997
rfoot -9.93686 -9.82984
rtoes -2.84387
lfemur -1.58124 2.0493 -18.325
ltibia 20.7463
lfoot -13.8072 5.47398
ltoes -8.53439
1445
root 8.22767 17.579 -16.1841 -2.88852 -6.27404 -0.10345
lowerback 5.41186 -0.0416793 -2.94201
upperback 0.294591 -0.131414 3.77005
thorax -2.71885 -0.00863242 5.58634
lowerneck -14.9006 -3.47432 -16.2222
upperneck 14.7181 -3.48768 13.4616
head 7.4923 -1.39867 6.83814
rclavicle 1.57009e-015 -2.3059e-014
rhumerus -10.5267 38.1021 -99.5026
rradius 99.0155
rwrist -23.2201
rhand -30.3312 43.2349
rfingers 7.12502
rthumb -3.63726 13.2862
lclavicle 1.57009e-015 -2.3059e-014
lhumerus -0.628721 -38.2214 97.7941
lradius 91.5145
lwrist 18.4312
lhand -24.5994 45.1865
lfingers 7.12502
lthumb 1.89851 75.1578
rfemur -1.64472 -0.605162 15.7514
rtibia 17.4131
rfoot -9.95399 -9.5411
rtoes -3.489
lfemur -1.30526 2.00181 -18.5056
ltibia 20.7419
lfoot -13.9504 5.6175
ltoes -9.14856
1446
root 8.23968 17.5746 -16.1693 -2.9812 -6.28069 0.0406567
lowerback 5.38589 0.0765861 -3.02479
upperback 0.0631373 0.0225303 3.65944
thorax -2.9624 0.079511 5.50709
lowerneck -13.7166 -3.3727 -16.4134
upperneck 14.3117 -3.53964 13.8952
head 7.17019 -1.43168 7.00207
rclavicle 5.13113e-015 -8.74653e-015
rhumerus -11.5389 36.5923 -100.151
rradius 99.471
rwrist -22.676
rhand -30.6534 39.4523
rfingers 7.12502
rthumb -3.94842 9.50914
lclavicle 5.13113e-015 -8.74653e-015
lhumerus -2.04562 -37.5301 98.8251
lradius 92.0959
lwrist 19.1175
lhand -23.8941 43.1897
lfingers 7.12502
lthumb 2.57961 73.1539
rfemur -1.56234 -0.856063 15.4947
rtibia 17.5092
rfoot -10.0597 -9.24702
rtoes -3.39137
lfemur -1.15139 1.99296 -18.728
ltibia 20.6992
lfoot -14.0285 5.67758
ltoes -10.1041
